<svg aria-hidden="true" style="position: absolute; width: 0; height: 0; overflow: hidden;" version="1.1" xmlns="http://www.w3.org/2000/svg" xmlns:xlink="http://www.w3.org/1999/xlink">
<defs>
<symbol id="cloud-download" viewBox="0 0 32 32" fill="#fff">
<path d="M25.8 13.412c-0.938-4.575-4.925-8.069-9.8-8.069-3.887 0-7.188 2.213-8.863 5.412-3.987 0.394-7.138 3.794-7.138 7.925 0 4.381 3.594 7.975 8.025 7.975h17.331c3.644 0 6.644-3 6.644-6.644 0-3.544-2.756-6.4-6.2-6.6zM13.881 16.813v-5.069h4.281v5.069h4.531l-6.694 6.694-6.644-6.694h4.525z"></path>
</symbol>
<symbol id="android" viewBox="0 0 32 32">
<path fill="#fff" style="fill: var(--color1, #fff)" d="M4.342 10.435h-0.082c-1.051 0-1.908 0.86-1.908 1.908v8.306c0 1.052 0.857 1.909 1.908 1.909h0.083c1.051 0 1.908-0.86 1.908-1.909v-8.306c-0.001-1.048-0.859-1.908-1.909-1.908z"></path>
<path fill="#fff" style="fill: var(--color1, #fff)" d="M7.163 23.853c0 0.965 0.788 1.75 1.753 1.75h1.873v4.486c0 1.054 0.86 1.91 1.908 1.91h0.082c1.052 0 1.91-0.858 1.91-1.91v-4.486h2.618v4.486c0 1.054 0.862 1.91 1.91 1.91h0.081c1.052 0 1.909-0.858 1.909-1.91v-4.486h1.875c0.963 0 1.752-0.786 1.752-1.75v-13.114h-17.671v13.114z"></path>
<path fill="#fff" style="fill: var(--color1, #fff)" d="M20.401 2.786l1.488-2.297c0.096-0.145 0.053-0.343-0.093-0.437-0.145-0.096-0.343-0.056-0.437 0.093l-1.543 2.376c-1.157-0.474-2.45-0.741-3.815-0.741-1.366 0-2.656 0.266-3.817 0.741l-1.54-2.376c-0.094-0.149-0.294-0.189-0.44-0.093-0.146 0.094-0.189 0.292-0.093 0.437l1.489 2.297c-2.685 1.316-4.496 3.796-4.496 6.641 0 0.175 0.011 0.347 0.026 0.518h17.741c0.015-0.171 0.025-0.343 0.025-0.518 0-2.845-1.812-5.325-4.496-6.641zM11.887 6.899c-0.471 0-0.854-0.38-0.854-0.853s0.383-0.851 0.854-0.851c0.474 0 0.854 0.378 0.854 0.851s-0.383 0.853-0.854 0.853zM20.112 6.899c-0.471 0-0.854-0.38-0.854-0.853s0.383-0.851 0.854-0.851c0.473 0 0.853 0.378 0.853 0.851s-0.38 0.853-0.853 0.853z"></path>
<path fill="#fff" style="fill: var(--color1, #fff)" d="M27.739 10.435h-0.079c-1.051 0-1.91 0.86-1.91 1.908v8.306c0 1.052 0.861 1.909 1.91 1.909h0.081c1.052 0 1.908-0.86 1.908-1.909v-8.306c0-1.048-0.858-1.908-1.909-1.908z"></path>
</symbol>
<symbol id="apple" viewBox="0 0 32 32">
<path fill="#fff" style="fill: var(--color1, #fff)" d="M4.274 11.763c-2.705 4.695-0.986 11.819 2.006 16.139 1.493 2.16 3.005 4.098 5.076 4.098 0.039 0 0.078-0.001 0.118-0.002 0.973-0.039 1.676-0.338 2.356-0.628 0.763-0.325 1.552-0.662 2.79-0.662 1.178 0 1.929 0.325 2.656 0.64 0.716 0.31 1.454 0.631 2.545 0.61 2.333-0.043 3.765-2.135 5.028-3.981 1.319-1.927 1.98-3.798 2.203-4.513l0.009-0.028c0.043-0.127-0.018-0.266-0.139-0.322-0.003-0.002-0.016-0.007-0.019-0.008-0.411-0.168-4.014-1.766-4.052-6.123-0.035-3.54 2.703-5.414 3.252-5.754l0.026-0.016c0.059-0.038 0.101-0.099 0.115-0.168s-0.001-0.142-0.041-0.2c-1.89-2.766-4.787-3.183-5.953-3.233-0.169-0.017-0.344-0.025-0.519-0.025-1.37 0-2.682 0.517-3.736 0.933-0.728 0.287-1.356 0.535-1.79 0.535-0.487 0-1.119-0.251-1.851-0.541-0.979-0.389-2.088-0.829-3.263-0.829-0.028 0-0.056 0-0.083 0.001-2.731 0.040-5.312 1.603-6.734 4.077z"></path>
<path fill="#fff" style="fill: var(--color1, #fff)" d="M22.253 0c-1.654 0.067-3.638 1.085-4.823 2.474-1.008 1.167-1.992 3.114-1.733 5.076 0.016 0.123 0.116 0.218 0.24 0.227 0.112 0.009 0.226 0.013 0.339 0.013 1.617 0 3.362-0.895 4.553-2.335 1.254-1.521 1.888-3.473 1.696-5.222-0.015-0.137-0.136-0.239-0.271-0.233z"></path>
</symbol>
<symbol id="facebook" viewBox="0 0 32 32">
<path fill="#fff" style="fill: var(--color1, #fff)" d="M18.466 10.485v-2.757c0-0.414 0.019-0.735 0.058-0.961s0.126-0.45 0.262-0.67c0.136-0.22 0.356-0.372 0.66-0.456s0.709-0.126 1.214-0.126h2.757v-5.514h-4.408c-2.55 0-4.382 0.605-5.495 1.815s-1.67 2.993-1.67 5.35v3.32h-3.301v5.515h3.301v16h6.622v-16h4.407l0.583-5.515h-4.99z"></path>
</symbol>
<symbol id="linkedin" viewBox="0 0 32 32">
<path fill="#fff" style="fill: var(--color1, #fff)" d="M0 10h7.156v22h-7.156v-22z"></path>
<path fill="#fff" style="fill: var(--color1, #fff)" d="M26.648 10.258c-0.076-0.024-0.148-0.050-0.228-0.072-0.096-0.022-0.192-0.040-0.29-0.056-0.38-0.076-0.796-0.13-1.284-0.13-4.172 0-6.818 3.034-7.69 4.206v-4.206h-7.156v22h7.156v-12s5.408-7.532 7.69-2v14h7.154v-14.846c0-3.324-2.278-6.094-5.352-6.896z"></path>
<path fill="#fff" style="fill: var(--color1, #fff)" d="M7 3.5c0 1.933-1.567 3.5-3.5 3.5s-3.5-1.567-3.5-3.5c0-1.933 1.567-3.5 3.5-3.5s3.5 1.567 3.5 3.5z"></path>
</symbol>
<symbol id="twitter" viewBox="0 0 32 32">
<path fill="#fff" style="fill: var(--color1, #fff)" d="M32 6.078c-1.19 0.522-2.458 0.868-3.78 1.036 1.36-0.812 2.398-2.088 2.886-3.626-1.268 0.756-2.668 1.29-4.16 1.588-1.204-1.282-2.92-2.076-4.792-2.076-3.632 0-6.556 2.948-6.556 6.562 0 0.52 0.044 1.020 0.152 1.496-5.454-0.266-10.28-2.88-13.522-6.862-0.566 0.982-0.898 2.106-0.898 3.316 0 2.272 1.17 4.286 2.914 5.452-1.054-0.020-2.088-0.326-2.964-0.808v0.072c0 3.188 2.274 5.836 5.256 6.446-0.534 0.146-1.116 0.216-1.72 0.216-0.42 0-0.844-0.024-1.242-0.112 0.85 2.598 3.262 4.508 6.13 4.57-2.232 1.746-5.066 2.798-8.134 2.798-0.538 0-1.054-0.024-1.57-0.090 2.906 1.874 6.35 2.944 10.064 2.944 12.072 0 18.672-10 18.672-18.668 0-0.29-0.010-0.57-0.024-0.848 1.302-0.924 2.396-2.078 3.288-3.406z"></path>
</symbol>
<symbol id="ic-bell" viewBox="0 0 32 32">
<path d="M16 32c2.207 0 3.998-1.791 3.998-4h-7.996c0 2.209 1.791 4 3.998 4zM29.462 22.643c-1.207-1.297-3.467-3.249-3.467-9.643 0-4.856-3.405-8.744-7.996-9.697v-1.303c0-1.104-0.895-2-1.999-2s-1.999 0.896-1.999 2v1.303c-4.591 0.954-7.996 4.841-7.996 9.697 0 6.394-2.259 8.346-3.467 9.643-0.375 0.403-0.541 0.885-0.538 1.357 0.007 1.025 0.811 2 2.006 2h23.987c1.195 0 2-0.975 2.006-2 0.003-0.472-0.163-0.954-0.538-1.357z"></path>
</symbol>
<symbol id="ic-board" viewBox="0 0 32 32">
<path d="M32 9.6c0-0.88-0.72-1.6-1.6-1.6h-1.6v-3.2c0-1.76-1.44-3.2-3.2-3.2h-22.4c-1.76 0-3.2 1.44-3.2 3.2v22.4c0 1.76 1.44 3.2 3.2 3.2h22.4c1.76 0 3.2-1.44 3.2-3.2v-3.2h1.6c0.88 0 1.6-0.72 1.6-1.6s-0.72-1.6-1.6-1.6h-1.6v-3.2h1.6c0.88 0 1.6-0.72 1.6-1.6s-0.72-1.6-1.6-1.6h-1.6v-3.2h1.6c0.88 0 1.6-0.72 1.6-1.6zM24 27.2h-19.2c-0.88 0-1.6-0.72-1.6-1.6v-19.2c0-0.88 0.72-1.6 1.6-1.6h19.2c0.88 0 1.6 0.72 1.6 1.6v19.2c0 0.88-0.72 1.6-1.6 1.6zM7.2 17.6h6.4c0.448 0 0.8 0.352 0.8 0.8v4.8c0 0.448-0.352 0.8-0.8 0.8h-6.4c-0.448 0-0.8-0.352-0.8-0.8v-4.8c0-0.448 0.352-0.8 0.8-0.8zM16.8 8h4.8c0.448 0 0.8 0.352 0.8 0.8v3.2c0 0.448-0.352 0.8-0.8 0.8h-4.8c-0.448 0-0.8-0.352-0.8-0.8v-3.2c0-0.448 0.352-0.8 0.8-0.8zM7.2 8h6.4c0.448 0 0.8 0.352 0.8 0.8v6.4c0 0.448-0.352 0.8-0.8 0.8h-6.4c-0.448 0-0.8-0.352-0.8-0.8v-6.4c0-0.448 0.352-0.8 0.8-0.8zM16.8 14.4h4.8c0.448 0 0.8 0.352 0.8 0.8v8c0 0.448-0.352 0.8-0.8 0.8h-4.8c-0.448 0-0.8-0.352-0.8-0.8v-8c0-0.448 0.352-0.8 0.8-0.8z"></path>
</symbol>
<symbol id="ic-hub" viewBox="0 0 32 32">
<path d="M24.889 23.111l-7.111-7.111v-5.653c2.4-0.871 4.018-3.36 3.431-6.151-0.444-2.098-2.187-3.769-4.302-4.124-3.342-0.551-6.24 2.009-6.24 5.262 0 2.311 1.493 4.267 3.556 5.013v5.653l-7.111 7.111h-5.333c-0.978 0-1.778 0.8-1.778 1.778v5.333c0 0.978 0.8 1.778 1.778 1.778h5.333c0.978 0 1.778-0.8 1.778-1.778v-3.644l7.111-7.467 7.111 7.467v3.644c0 0.978 0.8 1.778 1.778 1.778h5.333c0.978 0 1.778-0.8 1.778-1.778v-5.333c0-0.978-0.8-1.778-1.778-1.778h-5.333z"></path>
</symbol>
<symbol id="ic-share" viewBox="0 0 32 32">
<path d="M5.713 21.462c1.328 0 2.551-0.455 3.521-1.216l10.841 5.352c0 0.022-0.001 0.041-0.001 0.063 0 3.155 2.559 5.713 5.713 5.713s5.713-2.559 5.713-5.713c0-3.154-2.559-5.713-5.713-5.713-1.679 0-3.188 0.723-4.232 1.875l-10.223-5.047c0.060-0.332 0.093-0.675 0.093-1.026 0-0.071-0.002-0.14-0.005-0.21l10.575-5.553c1.009 0.895 2.337 1.44 3.791 1.44 3.156 0 5.713-2.558 5.713-5.713 0-3.156-2.559-5.713-5.713-5.713s-5.713 2.557-5.713 5.713c0 0.236 0.017 0.467 0.044 0.695l-10.276 5.396c-1.040-1.088-2.505-1.767-4.129-1.767-3.155 0-5.713 2.559-5.713 5.713s2.558 5.712 5.713 5.712z"></path>
</symbol>
<symbol id="ic-star" viewBox="0 0 32 32">
<path d="M16 25.232l9.888 5.968-2.624-11.248 8.736-7.568-11.504-0.976-4.496-10.608-4.496 10.608-11.504 0.976 8.736 7.568-2.624 11.248z"></path>
</symbol>
<symbol id="ic-thumb" viewBox="0 0 32 32">
<path d="M0 30.545h5.818v-17.455h-5.818v17.455zM32 14.545c0-1.6-1.309-2.909-2.909-2.909h-9.164l1.455-6.691c0-0.145 0-0.291 0-0.436 0-0.582-0.291-1.164-0.582-1.6l-1.6-1.455-9.6 9.6c-0.582 0.436-0.873 1.164-0.873 2.036v14.545c0 1.6 1.309 2.909 2.909 2.909h13.091c1.164 0 2.182-0.727 2.618-1.745l4.364-10.327c0.145-0.291 0.145-0.727 0.145-1.018v-2.909h0.145c0 0.146 0 0 0 0z"></path>
</symbol>
</defs>
</svg>
