<svg aria-hidden="true" style="position:absolute;width:0;height:0" xmlns="http://www.w3.org/2000/svg" overflow="hidden"><defs><symbol id="cloud-download" viewBox="0 0 32 32" fill="#fff"><path d="M25.8 13.412c-.938-4.575-4.925-8.069-9.8-8.069-3.887 0-7.188 2.213-8.863 5.412-3.987.394-7.138 3.794-7.138 7.925 0 4.381 3.594 7.975 8.025 7.975h17.331c3.644 0 6.644-3 6.644-6.644 0-3.544-2.756-6.4-6.2-6.6zm-11.919 3.401v-5.069h4.281v5.069h4.531l-6.694 6.694-6.644-6.694h4.525z"/></symbol><symbol id="android" viewBox="0 0 32 32"><path fill="var(--color1, #fff)" d="M4.342 10.435H4.26c-1.051 0-1.908.86-1.908 1.908v8.306c0 1.052.857 1.909 1.908 1.909h.083c1.051 0 1.908-.86 1.908-1.909v-8.306a1.916 1.916 0 00-1.909-1.908zm2.821 13.418c0 .965.788 1.75 1.753 1.75h1.873v4.486c0 1.054.86 1.91 1.908 1.91h.082c1.052 0 1.91-.858 1.91-1.91v-4.486h2.618v4.486c0 1.054.862 1.91 1.91 1.91h.081a1.913 1.913 0 001.909-1.91v-4.486h1.875c.963 0 1.752-.786 1.752-1.75V10.739H7.163v13.114zM20.401 2.786L21.889.489a.315.315 0 00-.093-.437.313.313 0 00-.437.093l-1.543 2.376a10.06 10.06 0 00-3.815-.741c-1.366 0-2.656.266-3.817.741L10.644.145a.316.316 0 00-.44-.093.315.315 0 00-.093.437L11.6 2.786C8.915 4.102 7.104 6.582 7.104 9.427c0 .175.011.347.026.518h17.741a5.91 5.91 0 00.025-.518c0-2.845-1.812-5.325-4.496-6.641zm-8.514 4.113a.853.853 0 110-1.704.853.853 0 110 1.704zm8.225 0a.853.853 0 11-.003-1.705.853.853 0 01.003 1.705zm7.627 3.536h-.079c-1.051 0-1.91.86-1.91 1.908v8.306c0 1.052.861 1.909 1.91 1.909h.081c1.052 0 1.908-.86 1.908-1.909v-8.306a1.914 1.914 0 00-1.909-1.908z"/></symbol><symbol id="apple" viewBox="0 0 32 32"><path fill="var(--color1, #fff)" d="M4.274 11.763c-2.705 4.695-.986 11.819 2.006 16.139C7.773 30.062 9.285 32 11.356 32l.118-.002c.973-.039 1.676-.338 2.356-.628.763-.325 1.552-.662 2.79-.662 1.178 0 1.929.325 2.656.64.716.31 1.454.631 2.545.61 2.333-.043 3.765-2.135 5.028-3.981a17.623 17.623 0 002.203-4.513l.009-.028a.263.263 0 00-.158-.33c-.411-.168-4.014-1.766-4.052-6.123-.035-3.54 2.703-5.414 3.252-5.754l.026-.016a.263.263 0 00.074-.368c-1.89-2.766-4.787-3.183-5.953-3.233a5.214 5.214 0 00-.519-.025c-1.37 0-2.682.517-3.736.933-.728.287-1.356.535-1.79.535-.487 0-1.119-.251-1.851-.541-.979-.389-2.088-.829-3.263-.829l-.083.001c-2.731.04-5.312 1.603-6.734 4.077z"/><path fill="var(--color1, #fff)" d="M22.253 0c-1.654.067-3.638 1.085-4.823 2.474-1.008 1.167-1.992 3.114-1.733 5.076a.261.261 0 00.24.227c.112.009.226.013.339.013 1.617 0 3.362-.895 4.553-2.335 1.254-1.521 1.888-3.473 1.696-5.222A.263.263 0 0022.254 0z"/></symbol><symbol id="facebook" viewBox="0 0 32 32"><path fill="var(--color1, #fff)" d="M18.466 10.485V7.728c0-.414.019-.735.058-.961s.126-.45.262-.67c.136-.22.356-.372.66-.456s.709-.126 1.214-.126h2.757V.001h-4.408c-2.55 0-4.382.605-5.495 1.815s-1.67 2.993-1.67 5.35v3.32H8.543v5.515h3.301v16h6.622v-16h4.407l.583-5.515h-4.99z"/></symbol><symbol id="linkedin" viewBox="0 0 32 32"><path fill="var(--color1, #fff)" d="M0 10h7.156v22H0V10zm26.648.258c-.076-.024-.148-.05-.228-.072a4.639 4.639 0 00-.29-.056 6.414 6.414 0 00-1.284-.13c-4.172 0-6.818 3.034-7.69 4.206V10H10v22h7.156V20s5.408-7.532 7.69-2v14H32V17.154c0-3.324-2.278-6.094-5.352-6.896zM7 3.5a3.5 3.5 0 11-7 0 3.5 3.5 0 017 0z"/></symbol><symbol id="twitter" viewBox="0 0 32 32"><path fill="var(--color1, #fff)" d="M32 6.078c-1.19.522-2.458.868-3.78 1.036a6.523 6.523 0 002.886-3.626 13.11 13.11 0 01-4.16 1.588A6.574 6.574 0 0022.154 3c-3.632 0-6.556 2.948-6.556 6.562 0 .52.044 1.02.152 1.496-5.454-.266-10.28-2.88-13.522-6.862a6.605 6.605 0 00-.898 3.316 6.57 6.57 0 002.914 5.452 6.479 6.479 0 01-2.964-.808v.072c0 3.188 2.274 5.836 5.256 6.446a6.548 6.548 0 01-1.72.216 5.8 5.8 0 01-1.242-.112c.85 2.598 3.262 4.508 6.13 4.57a13.182 13.182 0 01-8.134 2.798c-.538 0-1.054-.024-1.57-.09A18.469 18.469 0 0010.064 29c12.072 0 18.672-10 18.672-18.668 0-.29-.01-.57-.024-.848A13.087 13.087 0 0032 6.078z"/></symbol><symbol id="ic-bell" viewBox="0 0 32 32"><path d="M16 32a4 4 0 003.998-4h-7.996A4 4 0 0016 32zm13.462-9.357c-1.207-1.297-3.467-3.249-3.467-9.643 0-4.856-3.405-8.744-7.996-9.697V2a2 2 0 10-3.998 0v1.303C9.41 4.257 6.005 8.144 6.005 13c0 6.394-2.259 8.346-3.467 9.643A1.953 1.953 0 002 24c.007 1.025.811 2 2.006 2h23.987c1.195 0 2-.975 2.006-2a1.953 1.953 0 00-.538-1.357z"/></symbol><symbol id="ic-board" viewBox="0 0 32 32"><path d="M32 9.6c0-.88-.72-1.6-1.6-1.6h-1.6V4.8c0-1.76-1.44-3.2-3.2-3.2H3.2A3.21 3.21 0 000 4.8v22.4c0 1.76 1.44 3.2 3.2 3.2h22.4c1.76 0 3.2-1.44 3.2-3.2V24h1.6c.88 0 1.6-.72 1.6-1.6s-.72-1.6-1.6-1.6h-1.6v-3.2h1.6c.88 0 1.6-.72 1.6-1.6s-.72-1.6-1.6-1.6h-1.6v-3.2h1.6c.88 0 1.6-.72 1.6-1.6zm-8 17.6H4.8c-.88 0-1.6-.72-1.6-1.6V6.4c0-.88.72-1.6 1.6-1.6H24c.88 0 1.6.72 1.6 1.6v19.2c0 .88-.72 1.6-1.6 1.6zM7.2 17.6h6.4c.448 0 .8.352.8.8v4.8c0 .448-.352.8-.8.8H7.2a.792.792 0 01-.8-.8v-4.8c0-.448.352-.8.8-.8zM16.8 8h4.8c.448 0 .8.352.8.8V12c0 .448-.352.8-.8.8h-4.8a.792.792 0 01-.8-.8V8.8c0-.448.352-.8.8-.8zM7.2 8h6.4c.448 0 .8.352.8.8v6.4c0 .448-.352.8-.8.8H7.2a.792.792 0 01-.8-.8V8.8c0-.448.352-.8.8-.8zm9.6 6.4h4.8c.448 0 .8.352.8.8v8c0 .448-.352.8-.8.8h-4.8a.792.792 0 01-.8-.8v-8c0-.448.352-.8.8-.8z"/></symbol><symbol id="ic-hub" viewBox="0 0 32 32"><path d="M24.889 23.111L17.778 16v-5.653c2.4-.871 4.018-3.36 3.431-6.151-.444-2.098-2.187-3.769-4.302-4.124a5.336 5.336 0 00-6.24 5.262c0 2.311 1.493 4.267 3.556 5.013V16l-7.111 7.111H1.779c-.978 0-1.778.8-1.778 1.778v5.333C.001 31.2.801 32 1.779 32h5.333c.978 0 1.778-.8 1.778-1.778v-3.644l7.111-7.467 7.111 7.467v3.644c0 .978.8 1.778 1.778 1.778h5.333c.978 0 1.778-.8 1.778-1.778v-5.333c0-.978-.8-1.778-1.778-1.778H24.89z"/></symbol><symbol id="ic-share" viewBox="0 0 32 32"><path d="M5.713 21.462a5.687 5.687 0 003.521-1.216l10.841 5.352-.001.063a5.714 5.714 0 0011.426 0 5.715 5.715 0 00-9.945-3.838l-10.223-5.047a5.766 5.766 0 00.088-1.236l10.575-5.553a5.713 5.713 0 10-1.878-3.578L9.841 11.805a5.695 5.695 0 00-4.129-1.767 5.713 5.713 0 000 11.425z"/></symbol><symbol id="ic-star" viewBox="0 0 32 32"><path d="M16 25.232l9.888 5.968-2.624-11.248L32 12.384l-11.504-.976L16 .8l-4.496 10.608L0 12.384l8.736 7.568L6.112 31.2z"/></symbol><symbol id="ic-thumb" viewBox="0 0 32 32"><path d="M0 30.545h5.818V13.09H0v17.455zm32-16c0-1.6-1.309-2.909-2.909-2.909h-9.164l1.455-6.691v-.436c0-.582-.291-1.164-.582-1.6l-1.6-1.455-9.6 9.6c-.582.436-.873 1.164-.873 2.036v14.545c0 1.6 1.309 2.909 2.909 2.909h13.091c1.164 0 2.182-.727 2.618-1.745l4.364-10.327c.145-.291.145-.727.145-1.018v-2.909h.145c0 .146 0 0 0 0z"/></symbol></defs></svg>